<svg width="30" height="30" viewBox="0 0 30 30" fill="none" xmlns="http://www.w3.org/2000/svg">
<circle cx="15" cy="15" r="15" fill="#FF7B00"/>
<path fill-rule="evenodd" clip-rule="evenodd" d="M13.3636 5.25397C11.1204 6.00685 10.1176 8.08435 10.4955 11.1959C10.6997 12.8768 11.1832 13.8912 12.1835 14.7356C13.3168 15.6928 14.7175 15.989 16.2501 15.5958C17.5223 15.2693 18.8159 14.0081 19.1884 12.7308C19.7237 10.8956 19.646 8.34079 19.0199 7.19997C18.0318 5.39926 15.513 4.53272 13.3636 5.25397ZM16.6668 6.45695C17.8578 7.03308 18.3337 8.05069 18.3337 10.0208C18.3337 11.9018 17.9998 12.9878 17.1869 13.7514C15.4842 15.3506 12.8834 14.7421 12.0058 12.5387C11.5259 11.3341 11.5039 8.87872 11.9642 7.90149C12.3234 7.1386 13.1403 6.42016 13.8044 6.28317C14.0494 6.23261 14.3249 6.1656 14.4166 6.13429C14.716 6.03206 16.2401 6.25061 16.6668 6.45695ZM10.9162 16.2328C10.4578 16.4886 9.48539 16.8938 8.75531 17.1331C6.52406 17.8644 6.00167 18.6157 6.00001 21.0957C5.99884 22.7105 6.16752 22.9929 7.45016 23.5258C9.68258 24.4531 12.5516 25.0071 15.0833 24.9999C18.076 24.9913 22.5131 23.9181 23.5426 22.9539C23.9736 22.5501 24.001 22.4423 24 21.1427C23.9995 20.3826 23.9206 19.4953 23.8246 19.1707C23.5919 18.3839 22.729 17.6027 21.8221 17.3576C21.4162 17.2481 20.3939 16.8368 19.5507 16.4437C17.9411 15.6935 17.5003 15.6626 17.5003 16.3001C17.5003 16.6043 17.701 16.7931 18.4587 17.2014C18.9858 17.4855 19.9725 17.9026 20.6513 18.1284C21.3302 18.3541 22.0574 18.6943 22.2676 18.8842C22.7022 19.277 22.8827 20.1257 22.8038 21.4046L22.7508 22.2657L21.399 22.7652C19.3068 23.5385 17.5834 23.8236 15 23.8236C12.4165 23.8236 10.6932 23.5385 8.60096 22.7652L7.24914 22.2657L7.20047 21.0508C7.14613 19.6982 7.41949 18.9129 8.0484 18.6138C8.25059 18.5177 8.92599 18.2627 9.54956 18.0471C10.173 17.8317 11.0947 17.4245 11.598 17.1425C12.3614 16.7145 12.5047 16.5648 12.4645 16.2383C12.396 15.682 11.9058 15.6803 10.9162 16.2328Z" fill="white"/>
</svg>
